# xmcd CD database generated by RipIT
#
# Track frame offsets:
# 150
# 16170
# 37072
# 55105
# 74245
# 91227
# 109687
# 128782
# 144345
# 163672
# 185682
# 202577
# 220625
# 246017
#
# Disc length: 3679 seconds
#
# Revision: 2
# Processed by: cddbd v1.5.1PL2 Copyright (c) Steve Scherf et al.
# Submitted via: RipIT 3.3.3 www.suwald.com/ripit/ripit.html at Mo Jul 24 22:35:02 CEST 2006
#
DISCID=c00e5d0e
DTITLE=Charlie Byrd - Byrd-Lore CD 2
DYEAR=2002
DGENRE=Jazz
TTITLE0=How Insensitive
TTITLE1=Easy to Love
TTITLE2=In the Dark
TTITLE3=As Long as I Live
TTITLE4=Moments like This
TTITLE5=Perfidia
TTITLE6=At the Seaside
TTITLE7=There'll Be Some Changes Made
TTITLE8=Have You Met Miss Jones
TTITLE9=Esperanca Perdida
TTITLE10=Gentle Rain
TTITLE11=Triste
TTITLE12=What Are You Doing the Rest of Your Life
TTITLE13=Yesterdays
EXTD=YEAR: 2002\n
EXTT0=
EXTT1=
EXTT2=
EXTT3=
EXTT4=
EXTT5=
EXTT6=
EXTT7=
EXTT8=
EXTT9=
EXTT10=
EXTT11=
EXTT12=
EXTT13=
PLAYORDER=
